<mxfile host="app.diagrams.net" modified="2020-12-03T09:49:17.153Z" agent="5.0 (Windows NT 10.0; WOW64) AppleWebKit/537.36 (KHTML, like Gecko) Chrome/70.0.3538.25 Safari/537.36 Core/1.70.3756.400 QQBrowser/10.5.4039.400" etag="3boK6c1mExq99emYY150" version="13.10.6" type="github">
  <diagram id="C5RBs43oDa-KdzZeNtuy" name="Page-1">
    <mxGraphModel dx="742" dy="480" grid="1" gridSize="10" guides="1" tooltips="1" connect="1" arrows="1" fold="1" page="1" pageScale="1" pageWidth="827" pageHeight="1169" math="0" shadow="0">
      <root>
        <mxCell id="WIyWlLk6GJQsqaUBKTNV-0" />
        <mxCell id="WIyWlLk6GJQsqaUBKTNV-1" parent="WIyWlLk6GJQsqaUBKTNV-0" />
        <mxCell id="WIyWlLk6GJQsqaUBKTNV-2" value="" style="rounded=0;html=1;jettySize=auto;orthogonalLoop=1;fontSize=11;endArrow=block;endFill=0;endSize=8;strokeWidth=1;shadow=0;labelBackgroundColor=none;edgeStyle=orthogonalEdgeStyle;" parent="WIyWlLk6GJQsqaUBKTNV-1" source="WIyWlLk6GJQsqaUBKTNV-3" target="WIyWlLk6GJQsqaUBKTNV-6" edge="1">
          <mxGeometry relative="1" as="geometry" />
        </mxCell>
        <mxCell id="WIyWlLk6GJQsqaUBKTNV-3" value="下行接收PMWS" style="rounded=1;whiteSpace=wrap;html=1;fontSize=12;glass=0;strokeWidth=1;shadow=0;fillColor=#1ba1e2;strokeColor=#006EAF;fontColor=#ffffff;" parent="WIyWlLk6GJQsqaUBKTNV-1" vertex="1">
          <mxGeometry x="70" y="70" width="120" height="40" as="geometry" />
        </mxCell>
        <mxCell id="WIyWlLk6GJQsqaUBKTNV-4" value="Yes" style="rounded=0;html=1;jettySize=auto;orthogonalLoop=1;fontSize=11;endArrow=block;endFill=0;endSize=8;strokeWidth=1;shadow=0;labelBackgroundColor=none;edgeStyle=orthogonalEdgeStyle;" parent="WIyWlLk6GJQsqaUBKTNV-1" source="WIyWlLk6GJQsqaUBKTNV-6" target="WIyWlLk6GJQsqaUBKTNV-10" edge="1">
          <mxGeometry y="20" relative="1" as="geometry">
            <mxPoint as="offset" />
          </mxGeometry>
        </mxCell>
        <mxCell id="mw9BFmcyNcV64FFNhd6j-9" value="" style="edgeStyle=orthogonalEdgeStyle;rounded=0;orthogonalLoop=1;jettySize=auto;html=1;" edge="1" parent="WIyWlLk6GJQsqaUBKTNV-1" source="WIyWlLk6GJQsqaUBKTNV-6" target="mw9BFmcyNcV64FFNhd6j-8">
          <mxGeometry relative="1" as="geometry" />
        </mxCell>
        <mxCell id="WIyWlLk6GJQsqaUBKTNV-6" value="判断服务是否暂停" style="rhombus;whiteSpace=wrap;html=1;shadow=0;fontFamily=Helvetica;fontSize=12;align=center;strokeWidth=1;spacing=6;spacingTop=-4;fillColor=#76608a;strokeColor=#432D57;fontColor=#ffffff;" parent="WIyWlLk6GJQsqaUBKTNV-1" vertex="1">
          <mxGeometry x="80" y="160" width="100" height="80" as="geometry" />
        </mxCell>
        <mxCell id="mw9BFmcyNcV64FFNhd6j-5" value="" style="edgeStyle=orthogonalEdgeStyle;rounded=0;orthogonalLoop=1;jettySize=auto;html=1;" edge="1" parent="WIyWlLk6GJQsqaUBKTNV-1" source="WIyWlLk6GJQsqaUBKTNV-10" target="mw9BFmcyNcV64FFNhd6j-4">
          <mxGeometry relative="1" as="geometry" />
        </mxCell>
        <mxCell id="mw9BFmcyNcV64FFNhd6j-12" value="" style="edgeStyle=orthogonalEdgeStyle;rounded=0;orthogonalLoop=1;jettySize=auto;html=1;" edge="1" parent="WIyWlLk6GJQsqaUBKTNV-1" source="WIyWlLk6GJQsqaUBKTNV-10" target="mw9BFmcyNcV64FFNhd6j-11">
          <mxGeometry relative="1" as="geometry" />
        </mxCell>
        <mxCell id="WIyWlLk6GJQsqaUBKTNV-10" value="判断是否是对应模板" style="rhombus;whiteSpace=wrap;html=1;shadow=0;fontFamily=Helvetica;fontSize=12;align=center;strokeWidth=1;spacing=6;spacingTop=-4;fillColor=#76608a;strokeColor=#432D57;fontColor=#ffffff;" parent="WIyWlLk6GJQsqaUBKTNV-1" vertex="1">
          <mxGeometry x="80" y="280" width="100" height="80" as="geometry" />
        </mxCell>
        <mxCell id="mw9BFmcyNcV64FFNhd6j-44" style="edgeStyle=orthogonalEdgeStyle;rounded=0;orthogonalLoop=1;jettySize=auto;html=1;exitX=1;exitY=0.5;exitDx=0;exitDy=0;entryX=0.594;entryY=0.042;entryDx=0;entryDy=0;entryPerimeter=0;" edge="1" parent="WIyWlLk6GJQsqaUBKTNV-1" source="mw9BFmcyNcV64FFNhd6j-0" target="WIyWlLk6GJQsqaUBKTNV-3">
          <mxGeometry relative="1" as="geometry">
            <Array as="points">
              <mxPoint x="141" y="20" />
            </Array>
          </mxGeometry>
        </mxCell>
        <mxCell id="mw9BFmcyNcV64FFNhd6j-0" value="业务请求" style="ellipse;whiteSpace=wrap;html=1;fillColor=#008a00;strokeColor=#005700;fontColor=#ffffff;" vertex="1" parent="WIyWlLk6GJQsqaUBKTNV-1">
          <mxGeometry width="120" height="40" as="geometry" />
        </mxCell>
        <mxCell id="mw9BFmcyNcV64FFNhd6j-3" value="No" style="text;html=1;align=center;verticalAlign=middle;resizable=0;points=[];autosize=1;" vertex="1" parent="WIyWlLk6GJQsqaUBKTNV-1">
          <mxGeometry x="180" y="300" width="30" height="20" as="geometry" />
        </mxCell>
        <mxCell id="mw9BFmcyNcV64FFNhd6j-7" value="" style="edgeStyle=orthogonalEdgeStyle;rounded=0;orthogonalLoop=1;jettySize=auto;html=1;" edge="1" parent="WIyWlLk6GJQsqaUBKTNV-1" source="mw9BFmcyNcV64FFNhd6j-4" target="mw9BFmcyNcV64FFNhd6j-6">
          <mxGeometry relative="1" as="geometry" />
        </mxCell>
        <mxCell id="mw9BFmcyNcV64FFNhd6j-16" value="" style="edgeStyle=orthogonalEdgeStyle;rounded=0;orthogonalLoop=1;jettySize=auto;html=1;" edge="1" parent="WIyWlLk6GJQsqaUBKTNV-1" source="mw9BFmcyNcV64FFNhd6j-4" target="mw9BFmcyNcV64FFNhd6j-15">
          <mxGeometry relative="1" as="geometry" />
        </mxCell>
        <mxCell id="mw9BFmcyNcV64FFNhd6j-4" value="判断接入平台ID是否正确" style="rhombus;whiteSpace=wrap;html=1;shadow=0;fontFamily=Helvetica;fontSize=12;align=center;strokeWidth=1;spacing=6;spacingTop=-4;fillColor=#76608a;strokeColor=#432D57;fontColor=#ffffff;" vertex="1" parent="WIyWlLk6GJQsqaUBKTNV-1">
          <mxGeometry x="80" y="400" width="100" height="80" as="geometry" />
        </mxCell>
        <mxCell id="mw9BFmcyNcV64FFNhd6j-6" value="100002接入平台错误" style="whiteSpace=wrap;html=1;shadow=0;strokeWidth=1;spacing=6;spacingTop=-4;fillColor=#e51400;strokeColor=#B20000;fontColor=#ffffff;" vertex="1" parent="WIyWlLk6GJQsqaUBKTNV-1">
          <mxGeometry x="220" y="420" width="120" height="40" as="geometry" />
        </mxCell>
        <mxCell id="mw9BFmcyNcV64FFNhd6j-8" value="100110服务暂停" style="whiteSpace=wrap;html=1;shadow=0;strokeWidth=1;spacing=6;spacingTop=-4;fillColor=#e51400;strokeColor=#B20000;fontColor=#ffffff;" vertex="1" parent="WIyWlLk6GJQsqaUBKTNV-1">
          <mxGeometry x="220" y="180" width="120" height="40" as="geometry" />
        </mxCell>
        <mxCell id="mw9BFmcyNcV64FFNhd6j-10" value="No" style="text;html=1;align=center;verticalAlign=middle;resizable=0;points=[];autosize=1;" vertex="1" parent="WIyWlLk6GJQsqaUBKTNV-1">
          <mxGeometry x="180" y="180" width="30" height="20" as="geometry" />
        </mxCell>
        <mxCell id="mw9BFmcyNcV64FFNhd6j-11" value="100002未找到对应模板" style="whiteSpace=wrap;html=1;shadow=0;strokeWidth=1;spacing=6;spacingTop=-4;fillColor=#e51400;strokeColor=#B20000;fontColor=#ffffff;" vertex="1" parent="WIyWlLk6GJQsqaUBKTNV-1">
          <mxGeometry x="220" y="300" width="120" height="40" as="geometry" />
        </mxCell>
        <mxCell id="mw9BFmcyNcV64FFNhd6j-13" value="No" style="text;html=1;align=center;verticalAlign=middle;resizable=0;points=[];autosize=1;" vertex="1" parent="WIyWlLk6GJQsqaUBKTNV-1">
          <mxGeometry x="180" y="420" width="30" height="20" as="geometry" />
        </mxCell>
        <mxCell id="mw9BFmcyNcV64FFNhd6j-14" value="Yes" style="text;html=1;align=center;verticalAlign=middle;resizable=0;points=[];autosize=1;" vertex="1" parent="WIyWlLk6GJQsqaUBKTNV-1">
          <mxGeometry x="130" y="370" width="30" height="20" as="geometry" />
        </mxCell>
        <mxCell id="mw9BFmcyNcV64FFNhd6j-19" value="" style="edgeStyle=orthogonalEdgeStyle;rounded=0;orthogonalLoop=1;jettySize=auto;html=1;" edge="1" parent="WIyWlLk6GJQsqaUBKTNV-1" source="mw9BFmcyNcV64FFNhd6j-15" target="mw9BFmcyNcV64FFNhd6j-18">
          <mxGeometry relative="1" as="geometry" />
        </mxCell>
        <mxCell id="mw9BFmcyNcV64FFNhd6j-22" value="" style="edgeStyle=orthogonalEdgeStyle;rounded=0;orthogonalLoop=1;jettySize=auto;html=1;" edge="1" parent="WIyWlLk6GJQsqaUBKTNV-1" source="mw9BFmcyNcV64FFNhd6j-15" target="mw9BFmcyNcV64FFNhd6j-21">
          <mxGeometry relative="1" as="geometry" />
        </mxCell>
        <mxCell id="mw9BFmcyNcV64FFNhd6j-15" value="是否为允许请求IP" style="rhombus;whiteSpace=wrap;html=1;shadow=0;fontFamily=Helvetica;fontSize=12;align=center;strokeWidth=1;spacing=6;spacingTop=-4;fillColor=#76608a;strokeColor=#432D57;fontColor=#ffffff;" vertex="1" parent="WIyWlLk6GJQsqaUBKTNV-1">
          <mxGeometry x="80" y="520" width="100" height="80" as="geometry" />
        </mxCell>
        <mxCell id="mw9BFmcyNcV64FFNhd6j-17" value="Yes" style="text;html=1;align=center;verticalAlign=middle;resizable=0;points=[];autosize=1;" vertex="1" parent="WIyWlLk6GJQsqaUBKTNV-1">
          <mxGeometry x="125" y="490" width="30" height="20" as="geometry" />
        </mxCell>
        <mxCell id="mw9BFmcyNcV64FFNhd6j-18" value="100001未经请求的IP" style="whiteSpace=wrap;html=1;shadow=0;strokeWidth=1;spacing=6;spacingTop=-4;fillColor=#e51400;strokeColor=#B20000;fontColor=#ffffff;" vertex="1" parent="WIyWlLk6GJQsqaUBKTNV-1">
          <mxGeometry x="220" y="540" width="120" height="40" as="geometry" />
        </mxCell>
        <mxCell id="mw9BFmcyNcV64FFNhd6j-20" value="No" style="text;html=1;align=center;verticalAlign=middle;resizable=0;points=[];autosize=1;" vertex="1" parent="WIyWlLk6GJQsqaUBKTNV-1">
          <mxGeometry x="180" y="540" width="30" height="20" as="geometry" />
        </mxCell>
        <mxCell id="mw9BFmcyNcV64FFNhd6j-25" value="" style="edgeStyle=orthogonalEdgeStyle;rounded=0;orthogonalLoop=1;jettySize=auto;html=1;" edge="1" parent="WIyWlLk6GJQsqaUBKTNV-1" source="mw9BFmcyNcV64FFNhd6j-21" target="mw9BFmcyNcV64FFNhd6j-24">
          <mxGeometry relative="1" as="geometry" />
        </mxCell>
        <mxCell id="mw9BFmcyNcV64FFNhd6j-28" value="" style="edgeStyle=orthogonalEdgeStyle;rounded=0;orthogonalLoop=1;jettySize=auto;html=1;" edge="1" parent="WIyWlLk6GJQsqaUBKTNV-1" source="mw9BFmcyNcV64FFNhd6j-21" target="mw9BFmcyNcV64FFNhd6j-27">
          <mxGeometry relative="1" as="geometry" />
        </mxCell>
        <mxCell id="mw9BFmcyNcV64FFNhd6j-21" value="请求模板状态是否正确" style="rhombus;whiteSpace=wrap;html=1;shadow=0;fontFamily=Helvetica;fontSize=12;align=center;strokeWidth=1;spacing=6;spacingTop=-4;fillColor=#76608a;strokeColor=#432D57;fontColor=#ffffff;" vertex="1" parent="WIyWlLk6GJQsqaUBKTNV-1">
          <mxGeometry x="80" y="650" width="100" height="80" as="geometry" />
        </mxCell>
        <mxCell id="mw9BFmcyNcV64FFNhd6j-23" value="Yes" style="text;html=1;align=center;verticalAlign=middle;resizable=0;points=[];autosize=1;" vertex="1" parent="WIyWlLk6GJQsqaUBKTNV-1">
          <mxGeometry x="130" y="610" width="30" height="20" as="geometry" />
        </mxCell>
        <mxCell id="mw9BFmcyNcV64FFNhd6j-24" value="200009模板状态不正确" style="whiteSpace=wrap;html=1;shadow=0;strokeWidth=1;spacing=6;spacingTop=-4;fillColor=#e51400;strokeColor=#B20000;fontColor=#ffffff;" vertex="1" parent="WIyWlLk6GJQsqaUBKTNV-1">
          <mxGeometry x="230" y="670" width="110" height="40" as="geometry" />
        </mxCell>
        <mxCell id="mw9BFmcyNcV64FFNhd6j-26" value="No" style="text;html=1;align=center;verticalAlign=middle;resizable=0;points=[];autosize=1;" vertex="1" parent="WIyWlLk6GJQsqaUBKTNV-1">
          <mxGeometry x="180" y="670" width="30" height="20" as="geometry" />
        </mxCell>
        <mxCell id="mw9BFmcyNcV64FFNhd6j-34" value="" style="edgeStyle=orthogonalEdgeStyle;rounded=0;orthogonalLoop=1;jettySize=auto;html=1;" edge="1" parent="WIyWlLk6GJQsqaUBKTNV-1" source="mw9BFmcyNcV64FFNhd6j-27" target="mw9BFmcyNcV64FFNhd6j-33">
          <mxGeometry relative="1" as="geometry" />
        </mxCell>
        <mxCell id="mw9BFmcyNcV64FFNhd6j-38" style="edgeStyle=orthogonalEdgeStyle;rounded=0;orthogonalLoop=1;jettySize=auto;html=1;exitX=0;exitY=0.5;exitDx=0;exitDy=0;entryX=0;entryY=0.5;entryDx=0;entryDy=0;" edge="1" parent="WIyWlLk6GJQsqaUBKTNV-1" source="mw9BFmcyNcV64FFNhd6j-27" target="mw9BFmcyNcV64FFNhd6j-36">
          <mxGeometry relative="1" as="geometry" />
        </mxCell>
        <mxCell id="mw9BFmcyNcV64FFNhd6j-27" value="是否开启敏感词过滤" style="rhombus;whiteSpace=wrap;html=1;shadow=0;fontFamily=Helvetica;fontSize=12;align=center;strokeWidth=1;spacing=6;spacingTop=-4;fillColor=#76608a;strokeColor=#432D57;fontColor=#ffffff;" vertex="1" parent="WIyWlLk6GJQsqaUBKTNV-1">
          <mxGeometry x="80" y="780" width="100" height="80" as="geometry" />
        </mxCell>
        <mxCell id="mw9BFmcyNcV64FFNhd6j-29" value="Yes" style="text;html=1;align=center;verticalAlign=middle;resizable=0;points=[];autosize=1;" vertex="1" parent="WIyWlLk6GJQsqaUBKTNV-1">
          <mxGeometry x="130" y="740" width="30" height="20" as="geometry" />
        </mxCell>
        <mxCell id="mw9BFmcyNcV64FFNhd6j-37" value="" style="edgeStyle=orthogonalEdgeStyle;rounded=0;orthogonalLoop=1;jettySize=auto;html=1;" edge="1" parent="WIyWlLk6GJQsqaUBKTNV-1" source="mw9BFmcyNcV64FFNhd6j-33" target="mw9BFmcyNcV64FFNhd6j-36">
          <mxGeometry relative="1" as="geometry" />
        </mxCell>
        <mxCell id="mw9BFmcyNcV64FFNhd6j-42" value="" style="edgeStyle=orthogonalEdgeStyle;rounded=0;orthogonalLoop=1;jettySize=auto;html=1;" edge="1" parent="WIyWlLk6GJQsqaUBKTNV-1" source="mw9BFmcyNcV64FFNhd6j-33" target="mw9BFmcyNcV64FFNhd6j-41">
          <mxGeometry relative="1" as="geometry" />
        </mxCell>
        <mxCell id="mw9BFmcyNcV64FFNhd6j-33" value="模板内容是否存在敏感词" style="rhombus;whiteSpace=wrap;html=1;shadow=0;fontFamily=Helvetica;fontSize=12;align=center;strokeWidth=1;spacing=6;spacingTop=-4;fillColor=#76608a;strokeColor=#432D57;fontColor=#ffffff;" vertex="1" parent="WIyWlLk6GJQsqaUBKTNV-1">
          <mxGeometry x="80" y="900" width="100" height="80" as="geometry" />
        </mxCell>
        <mxCell id="mw9BFmcyNcV64FFNhd6j-35" value="Yes" style="text;html=1;align=center;verticalAlign=middle;resizable=0;points=[];autosize=1;" vertex="1" parent="WIyWlLk6GJQsqaUBKTNV-1">
          <mxGeometry x="125" y="870" width="30" height="20" as="geometry" />
        </mxCell>
        <mxCell id="mw9BFmcyNcV64FFNhd6j-47" value="" style="edgeStyle=orthogonalEdgeStyle;rounded=0;orthogonalLoop=1;jettySize=auto;html=1;" edge="1" parent="WIyWlLk6GJQsqaUBKTNV-1" source="mw9BFmcyNcV64FFNhd6j-36" target="mw9BFmcyNcV64FFNhd6j-46">
          <mxGeometry relative="1" as="geometry" />
        </mxCell>
        <mxCell id="mw9BFmcyNcV64FFNhd6j-49" style="edgeStyle=orthogonalEdgeStyle;rounded=0;orthogonalLoop=1;jettySize=auto;html=1;exitX=0.5;exitY=1;exitDx=0;exitDy=0;" edge="1" parent="WIyWlLk6GJQsqaUBKTNV-1" source="mw9BFmcyNcV64FFNhd6j-36">
          <mxGeometry relative="1" as="geometry">
            <mxPoint x="520" y="1050" as="targetPoint" />
            <Array as="points">
              <mxPoint x="130" y="1150" />
              <mxPoint x="520" y="1150" />
              <mxPoint x="520" y="1100" />
            </Array>
          </mxGeometry>
        </mxCell>
        <mxCell id="mw9BFmcyNcV64FFNhd6j-36" value="是否具有模板方法调用权限" style="rhombus;whiteSpace=wrap;html=1;shadow=0;fontFamily=Helvetica;fontSize=12;align=center;strokeWidth=1;spacing=6;spacingTop=-4;fillColor=#76608a;strokeColor=#432D57;fontColor=#ffffff;" vertex="1" parent="WIyWlLk6GJQsqaUBKTNV-1">
          <mxGeometry x="80" y="1050" width="100" height="80" as="geometry" />
        </mxCell>
        <mxCell id="mw9BFmcyNcV64FFNhd6j-39" value="No" style="text;html=1;align=center;verticalAlign=middle;resizable=0;points=[];autosize=1;" vertex="1" parent="WIyWlLk6GJQsqaUBKTNV-1">
          <mxGeometry x="35" y="910" width="30" height="20" as="geometry" />
        </mxCell>
        <mxCell id="mw9BFmcyNcV64FFNhd6j-40" value="No" style="text;html=1;align=center;verticalAlign=middle;resizable=0;points=[];autosize=1;" vertex="1" parent="WIyWlLk6GJQsqaUBKTNV-1">
          <mxGeometry x="125" y="1000" width="30" height="20" as="geometry" />
        </mxCell>
        <mxCell id="mw9BFmcyNcV64FFNhd6j-41" value="909013模板内容存在敏感词" style="whiteSpace=wrap;html=1;shadow=0;strokeWidth=1;spacing=6;spacingTop=-4;fillColor=#e51400;strokeColor=#B20000;fontColor=#ffffff;" vertex="1" parent="WIyWlLk6GJQsqaUBKTNV-1">
          <mxGeometry x="230" y="920" width="120" height="40" as="geometry" />
        </mxCell>
        <mxCell id="mw9BFmcyNcV64FFNhd6j-43" value="Yes" style="text;html=1;align=center;verticalAlign=middle;resizable=0;points=[];autosize=1;" vertex="1" parent="WIyWlLk6GJQsqaUBKTNV-1">
          <mxGeometry x="195" y="920" width="30" height="20" as="geometry" />
        </mxCell>
        <mxCell id="mw9BFmcyNcV64FFNhd6j-46" value="100005没有方法调用权限" style="whiteSpace=wrap;html=1;shadow=0;strokeWidth=1;spacing=6;spacingTop=-4;fillColor=#e51400;strokeColor=#B20000;fontColor=#ffffff;" vertex="1" parent="WIyWlLk6GJQsqaUBKTNV-1">
          <mxGeometry x="230" y="1070" width="120" height="40" as="geometry" />
        </mxCell>
        <mxCell id="mw9BFmcyNcV64FFNhd6j-48" value="No" style="text;html=1;align=center;verticalAlign=middle;resizable=0;points=[];autosize=1;" vertex="1" parent="WIyWlLk6GJQsqaUBKTNV-1">
          <mxGeometry x="180" y="1070" width="30" height="20" as="geometry" />
        </mxCell>
        <mxCell id="mw9BFmcyNcV64FFNhd6j-50" value="Yes" style="text;html=1;align=center;verticalAlign=middle;resizable=0;points=[];autosize=1;" vertex="1" parent="WIyWlLk6GJQsqaUBKTNV-1">
          <mxGeometry x="125" y="1130" width="30" height="20" as="geometry" />
        </mxCell>
        <mxCell id="mw9BFmcyNcV64FFNhd6j-55" value="" style="edgeStyle=orthogonalEdgeStyle;rounded=0;orthogonalLoop=1;jettySize=auto;html=1;" edge="1" parent="WIyWlLk6GJQsqaUBKTNV-1" source="mw9BFmcyNcV64FFNhd6j-53" target="mw9BFmcyNcV64FFNhd6j-54">
          <mxGeometry relative="1" as="geometry" />
        </mxCell>
        <mxCell id="mw9BFmcyNcV64FFNhd6j-63" style="edgeStyle=orthogonalEdgeStyle;rounded=0;orthogonalLoop=1;jettySize=auto;html=1;exitX=1;exitY=0.5;exitDx=0;exitDy=0;entryX=1;entryY=0.5;entryDx=0;entryDy=0;" edge="1" parent="WIyWlLk6GJQsqaUBKTNV-1" source="mw9BFmcyNcV64FFNhd6j-53" target="mw9BFmcyNcV64FFNhd6j-57">
          <mxGeometry relative="1" as="geometry" />
        </mxCell>
        <mxCell id="mw9BFmcyNcV64FFNhd6j-53" value="是否开启黑名单验证" style="rhombus;whiteSpace=wrap;html=1;fillColor=#76608a;strokeColor=#432D57;fontColor=#ffffff;" vertex="1" parent="WIyWlLk6GJQsqaUBKTNV-1">
          <mxGeometry x="460" y="970" width="120" height="80" as="geometry" />
        </mxCell>
        <mxCell id="mw9BFmcyNcV64FFNhd6j-58" value="" style="edgeStyle=orthogonalEdgeStyle;rounded=0;orthogonalLoop=1;jettySize=auto;html=1;" edge="1" parent="WIyWlLk6GJQsqaUBKTNV-1" source="mw9BFmcyNcV64FFNhd6j-54" target="mw9BFmcyNcV64FFNhd6j-57">
          <mxGeometry relative="1" as="geometry" />
        </mxCell>
        <mxCell id="mw9BFmcyNcV64FFNhd6j-66" value="" style="edgeStyle=orthogonalEdgeStyle;rounded=0;orthogonalLoop=1;jettySize=auto;html=1;" edge="1" parent="WIyWlLk6GJQsqaUBKTNV-1" source="mw9BFmcyNcV64FFNhd6j-54" target="mw9BFmcyNcV64FFNhd6j-65">
          <mxGeometry relative="1" as="geometry" />
        </mxCell>
        <mxCell id="mw9BFmcyNcV64FFNhd6j-54" value="验证号码是否在黑名单中" style="rhombus;whiteSpace=wrap;html=1;fillColor=#76608a;strokeColor=#432D57;fontColor=#ffffff;" vertex="1" parent="WIyWlLk6GJQsqaUBKTNV-1">
          <mxGeometry x="460" y="820" width="120" height="80" as="geometry" />
        </mxCell>
        <mxCell id="mw9BFmcyNcV64FFNhd6j-56" value="Yes" style="text;html=1;align=center;verticalAlign=middle;resizable=0;points=[];autosize=1;" vertex="1" parent="WIyWlLk6GJQsqaUBKTNV-1">
          <mxGeometry x="495" y="920" width="30" height="20" as="geometry" />
        </mxCell>
        <mxCell id="mw9BFmcyNcV64FFNhd6j-61" value="" style="edgeStyle=orthogonalEdgeStyle;rounded=0;orthogonalLoop=1;jettySize=auto;html=1;" edge="1" parent="WIyWlLk6GJQsqaUBKTNV-1" source="mw9BFmcyNcV64FFNhd6j-57" target="mw9BFmcyNcV64FFNhd6j-60">
          <mxGeometry relative="1" as="geometry" />
        </mxCell>
        <mxCell id="mw9BFmcyNcV64FFNhd6j-84" style="edgeStyle=orthogonalEdgeStyle;rounded=0;orthogonalLoop=1;jettySize=auto;html=1;exitX=1;exitY=0;exitDx=0;exitDy=0;entryX=1;entryY=0.5;entryDx=0;entryDy=0;" edge="1" parent="WIyWlLk6GJQsqaUBKTNV-1" source="mw9BFmcyNcV64FFNhd6j-57" target="mw9BFmcyNcV64FFNhd6j-73">
          <mxGeometry relative="1" as="geometry">
            <Array as="points">
              <mxPoint x="600" y="700" />
              <mxPoint x="600" y="470" />
            </Array>
          </mxGeometry>
        </mxCell>
        <mxCell id="mw9BFmcyNcV64FFNhd6j-57" value="是否开启白名单验证" style="rhombus;whiteSpace=wrap;html=1;fillColor=#76608a;strokeColor=#432D57;fontColor=#ffffff;" vertex="1" parent="WIyWlLk6GJQsqaUBKTNV-1">
          <mxGeometry x="460" y="680" width="120" height="80" as="geometry" />
        </mxCell>
        <mxCell id="mw9BFmcyNcV64FFNhd6j-59" value="No" style="text;html=1;align=center;verticalAlign=middle;resizable=0;points=[];autosize=1;" vertex="1" parent="WIyWlLk6GJQsqaUBKTNV-1">
          <mxGeometry x="495" y="780" width="30" height="20" as="geometry" />
        </mxCell>
        <mxCell id="mw9BFmcyNcV64FFNhd6j-74" value="" style="edgeStyle=orthogonalEdgeStyle;rounded=0;orthogonalLoop=1;jettySize=auto;html=1;" edge="1" parent="WIyWlLk6GJQsqaUBKTNV-1" source="mw9BFmcyNcV64FFNhd6j-60" target="mw9BFmcyNcV64FFNhd6j-73">
          <mxGeometry relative="1" as="geometry" />
        </mxCell>
        <mxCell id="mw9BFmcyNcV64FFNhd6j-82" style="edgeStyle=orthogonalEdgeStyle;rounded=0;orthogonalLoop=1;jettySize=auto;html=1;exitX=0;exitY=1;exitDx=0;exitDy=0;entryX=1;entryY=0.5;entryDx=0;entryDy=0;" edge="1" parent="WIyWlLk6GJQsqaUBKTNV-1" source="mw9BFmcyNcV64FFNhd6j-60" target="mw9BFmcyNcV64FFNhd6j-68">
          <mxGeometry relative="1" as="geometry" />
        </mxCell>
        <mxCell id="mw9BFmcyNcV64FFNhd6j-60" value="验证号码是否在白名单中" style="rhombus;whiteSpace=wrap;html=1;fillColor=#76608a;strokeColor=#432D57;fontColor=#ffffff;" vertex="1" parent="WIyWlLk6GJQsqaUBKTNV-1">
          <mxGeometry x="460" y="560" width="120" height="80" as="geometry" />
        </mxCell>
        <mxCell id="mw9BFmcyNcV64FFNhd6j-62" value="Yes" style="text;html=1;align=center;verticalAlign=middle;resizable=0;points=[];autosize=1;" vertex="1" parent="WIyWlLk6GJQsqaUBKTNV-1">
          <mxGeometry x="495" y="650" width="30" height="20" as="geometry" />
        </mxCell>
        <mxCell id="mw9BFmcyNcV64FFNhd6j-64" value="No" style="text;html=1;align=center;verticalAlign=middle;resizable=0;points=[];autosize=1;" vertex="1" parent="WIyWlLk6GJQsqaUBKTNV-1">
          <mxGeometry x="595" y="820" width="30" height="20" as="geometry" />
        </mxCell>
        <mxCell id="mw9BFmcyNcV64FFNhd6j-65" value="200041目的号码在黑名单中" style="whiteSpace=wrap;html=1;fillColor=#e51400;strokeColor=#B20000;fontColor=#ffffff;" vertex="1" parent="WIyWlLk6GJQsqaUBKTNV-1">
          <mxGeometry x="310" y="840" width="110" height="40" as="geometry" />
        </mxCell>
        <mxCell id="mw9BFmcyNcV64FFNhd6j-67" value="Yes" style="text;html=1;align=center;verticalAlign=middle;resizable=0;points=[];autosize=1;" vertex="1" parent="WIyWlLk6GJQsqaUBKTNV-1">
          <mxGeometry x="435" y="860" width="30" height="20" as="geometry" />
        </mxCell>
        <mxCell id="mw9BFmcyNcV64FFNhd6j-68" value="200042模板号码不在白名单中" style="whiteSpace=wrap;html=1;fillColor=#e51400;strokeColor=#B20000;fontColor=#ffffff;" vertex="1" parent="WIyWlLk6GJQsqaUBKTNV-1">
          <mxGeometry x="320" y="610" width="104" height="40" as="geometry" />
        </mxCell>
        <mxCell id="mw9BFmcyNcV64FFNhd6j-71" value="No" style="text;html=1;align=center;verticalAlign=middle;resizable=0;points=[];autosize=1;" vertex="1" parent="WIyWlLk6GJQsqaUBKTNV-1">
          <mxGeometry x="445" y="630" width="30" height="20" as="geometry" />
        </mxCell>
        <mxCell id="mw9BFmcyNcV64FFNhd6j-77" value="" style="edgeStyle=orthogonalEdgeStyle;rounded=0;orthogonalLoop=1;jettySize=auto;html=1;" edge="1" parent="WIyWlLk6GJQsqaUBKTNV-1" source="mw9BFmcyNcV64FFNhd6j-73" target="mw9BFmcyNcV64FFNhd6j-76">
          <mxGeometry relative="1" as="geometry" />
        </mxCell>
        <mxCell id="mw9BFmcyNcV64FFNhd6j-105" style="edgeStyle=orthogonalEdgeStyle;rounded=0;orthogonalLoop=1;jettySize=auto;html=1;exitX=1;exitY=0;exitDx=0;exitDy=0;entryX=1;entryY=0.5;entryDx=0;entryDy=0;" edge="1" parent="WIyWlLk6GJQsqaUBKTNV-1" source="mw9BFmcyNcV64FFNhd6j-73" target="mw9BFmcyNcV64FFNhd6j-86">
          <mxGeometry relative="1" as="geometry">
            <Array as="points">
              <mxPoint x="600" y="450" />
              <mxPoint x="600" y="240" />
            </Array>
          </mxGeometry>
        </mxCell>
        <mxCell id="mw9BFmcyNcV64FFNhd6j-73" value="是否设置内容字数限制" style="rhombus;whiteSpace=wrap;html=1;fillColor=#76608a;strokeColor=#432D57;fontColor=#ffffff;" vertex="1" parent="WIyWlLk6GJQsqaUBKTNV-1">
          <mxGeometry x="460" y="430" width="120" height="80" as="geometry" />
        </mxCell>
        <mxCell id="mw9BFmcyNcV64FFNhd6j-75" value="Yes" style="text;html=1;align=center;verticalAlign=middle;resizable=0;points=[];autosize=1;" vertex="1" parent="WIyWlLk6GJQsqaUBKTNV-1">
          <mxGeometry x="490" y="530" width="30" height="20" as="geometry" />
        </mxCell>
        <mxCell id="mw9BFmcyNcV64FFNhd6j-81" style="edgeStyle=orthogonalEdgeStyle;rounded=0;orthogonalLoop=1;jettySize=auto;html=1;exitX=0;exitY=1;exitDx=0;exitDy=0;entryX=1;entryY=0.5;entryDx=0;entryDy=0;" edge="1" parent="WIyWlLk6GJQsqaUBKTNV-1" source="mw9BFmcyNcV64FFNhd6j-76" target="mw9BFmcyNcV64FFNhd6j-79">
          <mxGeometry relative="1" as="geometry" />
        </mxCell>
        <mxCell id="mw9BFmcyNcV64FFNhd6j-87" value="" style="edgeStyle=orthogonalEdgeStyle;rounded=0;orthogonalLoop=1;jettySize=auto;html=1;" edge="1" parent="WIyWlLk6GJQsqaUBKTNV-1" source="mw9BFmcyNcV64FFNhd6j-76" target="mw9BFmcyNcV64FFNhd6j-86">
          <mxGeometry relative="1" as="geometry" />
        </mxCell>
        <mxCell id="mw9BFmcyNcV64FFNhd6j-76" value="内容字数是否超出限制" style="rhombus;whiteSpace=wrap;html=1;fillColor=#76608a;strokeColor=#432D57;fontColor=#ffffff;" vertex="1" parent="WIyWlLk6GJQsqaUBKTNV-1">
          <mxGeometry x="460" y="320" width="120" height="80" as="geometry" />
        </mxCell>
        <mxCell id="mw9BFmcyNcV64FFNhd6j-78" value="Yes" style="text;html=1;align=center;verticalAlign=middle;resizable=0;points=[];autosize=1;" vertex="1" parent="WIyWlLk6GJQsqaUBKTNV-1">
          <mxGeometry x="485" y="400" width="30" height="20" as="geometry" />
        </mxCell>
        <mxCell id="mw9BFmcyNcV64FFNhd6j-79" value="200012内容字数限制" style="whiteSpace=wrap;html=1;fillColor=#e51400;strokeColor=#B20000;fontColor=#ffffff;" vertex="1" parent="WIyWlLk6GJQsqaUBKTNV-1">
          <mxGeometry x="320" y="360" width="110" height="40" as="geometry" />
        </mxCell>
        <mxCell id="mw9BFmcyNcV64FFNhd6j-83" value="Yes" style="text;html=1;align=center;verticalAlign=middle;resizable=0;points=[];autosize=1;" vertex="1" parent="WIyWlLk6GJQsqaUBKTNV-1">
          <mxGeometry x="435" y="360" width="30" height="20" as="geometry" />
        </mxCell>
        <mxCell id="mw9BFmcyNcV64FFNhd6j-85" value="No" style="text;html=1;align=center;verticalAlign=middle;resizable=0;points=[];autosize=1;" vertex="1" parent="WIyWlLk6GJQsqaUBKTNV-1">
          <mxGeometry x="605" y="550" width="30" height="20" as="geometry" />
        </mxCell>
        <mxCell id="mw9BFmcyNcV64FFNhd6j-90" style="edgeStyle=orthogonalEdgeStyle;rounded=0;orthogonalLoop=1;jettySize=auto;html=1;exitX=0;exitY=1;exitDx=0;exitDy=0;entryX=1;entryY=0.5;entryDx=0;entryDy=0;" edge="1" parent="WIyWlLk6GJQsqaUBKTNV-1" source="mw9BFmcyNcV64FFNhd6j-86" target="mw9BFmcyNcV64FFNhd6j-88">
          <mxGeometry relative="1" as="geometry" />
        </mxCell>
        <mxCell id="mw9BFmcyNcV64FFNhd6j-94" value="" style="edgeStyle=orthogonalEdgeStyle;rounded=0;orthogonalLoop=1;jettySize=auto;html=1;" edge="1" parent="WIyWlLk6GJQsqaUBKTNV-1" source="mw9BFmcyNcV64FFNhd6j-86" target="mw9BFmcyNcV64FFNhd6j-93">
          <mxGeometry relative="1" as="geometry" />
        </mxCell>
        <mxCell id="mw9BFmcyNcV64FFNhd6j-86" value="模板是否在有效期" style="rhombus;whiteSpace=wrap;html=1;fillColor=#76608a;strokeColor=#432D57;fontColor=#ffffff;" vertex="1" parent="WIyWlLk6GJQsqaUBKTNV-1">
          <mxGeometry x="460" y="200" width="120" height="80" as="geometry" />
        </mxCell>
        <mxCell id="mw9BFmcyNcV64FFNhd6j-88" value="200008模板不在有效期" style="whiteSpace=wrap;html=1;fillColor=#e51400;strokeColor=#B20000;fontColor=#ffffff;" vertex="1" parent="WIyWlLk6GJQsqaUBKTNV-1">
          <mxGeometry x="312" y="240" width="120" height="40" as="geometry" />
        </mxCell>
        <mxCell id="mw9BFmcyNcV64FFNhd6j-91" value="No" style="text;html=1;align=center;verticalAlign=middle;resizable=0;points=[];autosize=1;" vertex="1" parent="WIyWlLk6GJQsqaUBKTNV-1">
          <mxGeometry x="490" y="290" width="30" height="20" as="geometry" />
        </mxCell>
        <mxCell id="mw9BFmcyNcV64FFNhd6j-92" value="No" style="text;html=1;align=center;verticalAlign=middle;resizable=0;points=[];autosize=1;" vertex="1" parent="WIyWlLk6GJQsqaUBKTNV-1">
          <mxGeometry x="435" y="260" width="30" height="20" as="geometry" />
        </mxCell>
        <mxCell id="mw9BFmcyNcV64FFNhd6j-96" value="" style="edgeStyle=orthogonalEdgeStyle;rounded=0;orthogonalLoop=1;jettySize=auto;html=1;" edge="1" parent="WIyWlLk6GJQsqaUBKTNV-1" source="mw9BFmcyNcV64FFNhd6j-93" target="mw9BFmcyNcV64FFNhd6j-95">
          <mxGeometry relative="1" as="geometry" />
        </mxCell>
        <mxCell id="mw9BFmcyNcV64FFNhd6j-100" value="" style="edgeStyle=orthogonalEdgeStyle;rounded=0;orthogonalLoop=1;jettySize=auto;html=1;" edge="1" parent="WIyWlLk6GJQsqaUBKTNV-1" source="mw9BFmcyNcV64FFNhd6j-93" target="mw9BFmcyNcV64FFNhd6j-99">
          <mxGeometry relative="1" as="geometry" />
        </mxCell>
        <mxCell id="mw9BFmcyNcV64FFNhd6j-93" value="接入端口号是否正确" style="rhombus;whiteSpace=wrap;html=1;fillColor=#76608a;strokeColor=#432D57;fontColor=#ffffff;" vertex="1" parent="WIyWlLk6GJQsqaUBKTNV-1">
          <mxGeometry x="460" y="70" width="120" height="80" as="geometry" />
        </mxCell>
        <mxCell id="mw9BFmcyNcV64FFNhd6j-95" value="200006接入端口号错误" style="whiteSpace=wrap;html=1;fillColor=#e51400;strokeColor=#B20000;fontColor=#ffffff;" vertex="1" parent="WIyWlLk6GJQsqaUBKTNV-1">
          <mxGeometry x="300" y="85" width="110" height="50" as="geometry" />
        </mxCell>
        <mxCell id="mw9BFmcyNcV64FFNhd6j-97" value="No" style="text;html=1;align=center;verticalAlign=middle;resizable=0;points=[];autosize=1;" vertex="1" parent="WIyWlLk6GJQsqaUBKTNV-1">
          <mxGeometry x="415" y="110" width="30" height="20" as="geometry" />
        </mxCell>
        <mxCell id="mw9BFmcyNcV64FFNhd6j-98" value="Yes" style="text;html=1;align=center;verticalAlign=middle;resizable=0;points=[];autosize=1;" vertex="1" parent="WIyWlLk6GJQsqaUBKTNV-1">
          <mxGeometry x="495" y="160" width="30" height="20" as="geometry" />
        </mxCell>
        <mxCell id="mw9BFmcyNcV64FFNhd6j-103" value="" style="edgeStyle=orthogonalEdgeStyle;rounded=0;orthogonalLoop=1;jettySize=auto;html=1;" edge="1" parent="WIyWlLk6GJQsqaUBKTNV-1" source="mw9BFmcyNcV64FFNhd6j-99" target="mw9BFmcyNcV64FFNhd6j-102">
          <mxGeometry relative="1" as="geometry" />
        </mxCell>
        <mxCell id="mw9BFmcyNcV64FFNhd6j-109" value="" style="edgeStyle=orthogonalEdgeStyle;rounded=0;orthogonalLoop=1;jettySize=auto;html=1;" edge="1" parent="WIyWlLk6GJQsqaUBKTNV-1" source="mw9BFmcyNcV64FFNhd6j-99" target="mw9BFmcyNcV64FFNhd6j-108">
          <mxGeometry relative="1" as="geometry" />
        </mxCell>
        <mxCell id="mw9BFmcyNcV64FFNhd6j-99" value="密码是否正确" style="rhombus;whiteSpace=wrap;html=1;fillColor=#76608a;strokeColor=#432D57;fontColor=#ffffff;" vertex="1" parent="WIyWlLk6GJQsqaUBKTNV-1">
          <mxGeometry x="680" y="70" width="120" height="80" as="geometry" />
        </mxCell>
        <mxCell id="mw9BFmcyNcV64FFNhd6j-101" value="Yes" style="text;html=1;align=center;verticalAlign=middle;resizable=0;points=[];autosize=1;" vertex="1" parent="WIyWlLk6GJQsqaUBKTNV-1">
          <mxGeometry x="615" y="85" width="30" height="20" as="geometry" />
        </mxCell>
        <mxCell id="mw9BFmcyNcV64FFNhd6j-112" value="" style="edgeStyle=orthogonalEdgeStyle;rounded=0;orthogonalLoop=1;jettySize=auto;html=1;" edge="1" parent="WIyWlLk6GJQsqaUBKTNV-1" source="mw9BFmcyNcV64FFNhd6j-102" target="mw9BFmcyNcV64FFNhd6j-111">
          <mxGeometry relative="1" as="geometry" />
        </mxCell>
        <mxCell id="mw9BFmcyNcV64FFNhd6j-115" value="" style="edgeStyle=orthogonalEdgeStyle;rounded=0;orthogonalLoop=1;jettySize=auto;html=1;" edge="1" parent="WIyWlLk6GJQsqaUBKTNV-1" source="mw9BFmcyNcV64FFNhd6j-102" target="mw9BFmcyNcV64FFNhd6j-114">
          <mxGeometry relative="1" as="geometry" />
        </mxCell>
        <mxCell id="mw9BFmcyNcV64FFNhd6j-102" value="子业务ID是否正确" style="rhombus;whiteSpace=wrap;html=1;fillColor=#76608a;strokeColor=#432D57;fontColor=#ffffff;" vertex="1" parent="WIyWlLk6GJQsqaUBKTNV-1">
          <mxGeometry x="680" y="210" width="120" height="80" as="geometry" />
        </mxCell>
        <mxCell id="mw9BFmcyNcV64FFNhd6j-104" value="Yes" style="text;html=1;align=center;verticalAlign=middle;resizable=0;points=[];autosize=1;" vertex="1" parent="WIyWlLk6GJQsqaUBKTNV-1">
          <mxGeometry x="735" y="160" width="30" height="20" as="geometry" />
        </mxCell>
        <mxCell id="mw9BFmcyNcV64FFNhd6j-107" value="No" style="text;html=1;align=center;verticalAlign=middle;resizable=0;points=[];autosize=1;" vertex="1" parent="WIyWlLk6GJQsqaUBKTNV-1">
          <mxGeometry x="595" y="340" width="30" height="20" as="geometry" />
        </mxCell>
        <mxCell id="mw9BFmcyNcV64FFNhd6j-108" value="100003密码不正确" style="whiteSpace=wrap;html=1;fontColor=#ffffff;strokeColor=#B20000;fillColor=#e51400;" vertex="1" parent="WIyWlLk6GJQsqaUBKTNV-1">
          <mxGeometry x="870" y="90" width="120" height="40" as="geometry" />
        </mxCell>
        <mxCell id="mw9BFmcyNcV64FFNhd6j-110" value="No" style="text;html=1;align=center;verticalAlign=middle;resizable=0;points=[];autosize=1;" vertex="1" parent="WIyWlLk6GJQsqaUBKTNV-1">
          <mxGeometry x="815" y="90" width="30" height="20" as="geometry" />
        </mxCell>
        <mxCell id="mw9BFmcyNcV64FFNhd6j-111" value="100004子业务ID错误" style="whiteSpace=wrap;html=1;fontColor=#ffffff;strokeColor=#B20000;fillColor=#e51400;" vertex="1" parent="WIyWlLk6GJQsqaUBKTNV-1">
          <mxGeometry x="871" y="230" width="120" height="40" as="geometry" />
        </mxCell>
        <mxCell id="mw9BFmcyNcV64FFNhd6j-113" value="No" style="text;html=1;align=center;verticalAlign=middle;resizable=0;points=[];autosize=1;" vertex="1" parent="WIyWlLk6GJQsqaUBKTNV-1">
          <mxGeometry x="815" y="230" width="30" height="20" as="geometry" />
        </mxCell>
        <mxCell id="mw9BFmcyNcV64FFNhd6j-120" value="" style="edgeStyle=orthogonalEdgeStyle;rounded=0;orthogonalLoop=1;jettySize=auto;html=1;" edge="1" parent="WIyWlLk6GJQsqaUBKTNV-1" source="mw9BFmcyNcV64FFNhd6j-114" target="mw9BFmcyNcV64FFNhd6j-119">
          <mxGeometry relative="1" as="geometry" />
        </mxCell>
        <mxCell id="mw9BFmcyNcV64FFNhd6j-123" value="" style="edgeStyle=orthogonalEdgeStyle;rounded=0;orthogonalLoop=1;jettySize=auto;html=1;" edge="1" parent="WIyWlLk6GJQsqaUBKTNV-1" source="mw9BFmcyNcV64FFNhd6j-114" target="mw9BFmcyNcV64FFNhd6j-122">
          <mxGeometry relative="1" as="geometry" />
        </mxCell>
        <mxCell id="mw9BFmcyNcV64FFNhd6j-114" value="目的号码是否为手机号" style="rhombus;whiteSpace=wrap;html=1;fillColor=#76608a;strokeColor=#432D57;fontColor=#ffffff;" vertex="1" parent="WIyWlLk6GJQsqaUBKTNV-1">
          <mxGeometry x="680" y="350" width="120" height="80" as="geometry" />
        </mxCell>
        <mxCell id="mw9BFmcyNcV64FFNhd6j-116" value="Yes" style="text;html=1;align=center;verticalAlign=middle;resizable=0;points=[];autosize=1;" vertex="1" parent="WIyWlLk6GJQsqaUBKTNV-1">
          <mxGeometry x="735" y="310" width="30" height="20" as="geometry" />
        </mxCell>
        <mxCell id="mw9BFmcyNcV64FFNhd6j-119" value="200007验证号码不是手机号" style="whiteSpace=wrap;html=1;fontColor=#ffffff;strokeColor=#B20000;fillColor=#e51400;" vertex="1" parent="WIyWlLk6GJQsqaUBKTNV-1">
          <mxGeometry x="870" y="370" width="120" height="40" as="geometry" />
        </mxCell>
        <mxCell id="mw9BFmcyNcV64FFNhd6j-121" value="No" style="text;html=1;align=center;verticalAlign=middle;resizable=0;points=[];autosize=1;" vertex="1" parent="WIyWlLk6GJQsqaUBKTNV-1">
          <mxGeometry x="815" y="370" width="30" height="20" as="geometry" />
        </mxCell>
        <mxCell id="mw9BFmcyNcV64FFNhd6j-125" value="" style="edgeStyle=orthogonalEdgeStyle;rounded=0;orthogonalLoop=1;jettySize=auto;html=1;" edge="1" parent="WIyWlLk6GJQsqaUBKTNV-1" source="mw9BFmcyNcV64FFNhd6j-122" target="mw9BFmcyNcV64FFNhd6j-124">
          <mxGeometry relative="1" as="geometry" />
        </mxCell>
        <mxCell id="mw9BFmcyNcV64FFNhd6j-129" value="" style="edgeStyle=orthogonalEdgeStyle;rounded=0;orthogonalLoop=1;jettySize=auto;html=1;" edge="1" parent="WIyWlLk6GJQsqaUBKTNV-1" source="mw9BFmcyNcV64FFNhd6j-122" target="mw9BFmcyNcV64FFNhd6j-128">
          <mxGeometry relative="1" as="geometry" />
        </mxCell>
        <mxCell id="mw9BFmcyNcV64FFNhd6j-122" value="检查是否有接收参数值" style="rhombus;whiteSpace=wrap;html=1;fillColor=#76608a;strokeColor=#432D57;fontColor=#ffffff;" vertex="1" parent="WIyWlLk6GJQsqaUBKTNV-1">
          <mxGeometry x="680" y="480" width="120" height="80" as="geometry" />
        </mxCell>
        <mxCell id="mw9BFmcyNcV64FFNhd6j-124" value="900006内部错误" style="whiteSpace=wrap;html=1;fontColor=#ffffff;strokeColor=#B20000;fillColor=#e51400;" vertex="1" parent="WIyWlLk6GJQsqaUBKTNV-1">
          <mxGeometry x="870" y="500" width="120" height="40" as="geometry" />
        </mxCell>
        <mxCell id="mw9BFmcyNcV64FFNhd6j-126" value="Yes" style="text;html=1;align=center;verticalAlign=middle;resizable=0;points=[];autosize=1;" vertex="1" parent="WIyWlLk6GJQsqaUBKTNV-1">
          <mxGeometry x="735" y="440" width="30" height="20" as="geometry" />
        </mxCell>
        <mxCell id="mw9BFmcyNcV64FFNhd6j-127" value="No" style="text;html=1;align=center;verticalAlign=middle;resizable=0;points=[];autosize=1;" vertex="1" parent="WIyWlLk6GJQsqaUBKTNV-1">
          <mxGeometry x="805" y="500" width="30" height="20" as="geometry" />
        </mxCell>
        <mxCell id="mw9BFmcyNcV64FFNhd6j-135" style="edgeStyle=orthogonalEdgeStyle;rounded=0;orthogonalLoop=1;jettySize=auto;html=1;exitX=1;exitY=1;exitDx=0;exitDy=0;" edge="1" parent="WIyWlLk6GJQsqaUBKTNV-1" source="mw9BFmcyNcV64FFNhd6j-128">
          <mxGeometry relative="1" as="geometry">
            <mxPoint x="880" y="800" as="targetPoint" />
            <Array as="points">
              <mxPoint x="770" y="800" />
            </Array>
          </mxGeometry>
        </mxCell>
        <mxCell id="mw9BFmcyNcV64FFNhd6j-192" style="edgeStyle=orthogonalEdgeStyle;rounded=0;orthogonalLoop=1;jettySize=auto;html=1;exitX=1;exitY=0;exitDx=0;exitDy=0;" edge="1" parent="WIyWlLk6GJQsqaUBKTNV-1" source="mw9BFmcyNcV64FFNhd6j-128">
          <mxGeometry relative="1" as="geometry">
            <mxPoint x="880" y="640" as="targetPoint" />
            <Array as="points">
              <mxPoint x="770" y="640" />
              <mxPoint x="870" y="640" />
            </Array>
          </mxGeometry>
        </mxCell>
        <mxCell id="mw9BFmcyNcV64FFNhd6j-128" value="判断业务类型是否为营销" style="rhombus;whiteSpace=wrap;html=1;fillColor=#76608a;strokeColor=#432D57;fontColor=#ffffff;" vertex="1" parent="WIyWlLk6GJQsqaUBKTNV-1">
          <mxGeometry x="680" y="690" width="120" height="80" as="geometry" />
        </mxCell>
        <mxCell id="mw9BFmcyNcV64FFNhd6j-131" value="Yes" style="text;html=1;align=center;verticalAlign=middle;resizable=0;points=[];autosize=1;" vertex="1" parent="WIyWlLk6GJQsqaUBKTNV-1">
          <mxGeometry x="735" y="610" width="30" height="20" as="geometry" />
        </mxCell>
        <mxCell id="mw9BFmcyNcV64FFNhd6j-136" value="Yes" style="text;html=1;align=center;verticalAlign=middle;resizable=0;points=[];autosize=1;" vertex="1" parent="WIyWlLk6GJQsqaUBKTNV-1">
          <mxGeometry x="765" y="680" width="30" height="20" as="geometry" />
        </mxCell>
        <mxCell id="mw9BFmcyNcV64FFNhd6j-137" value="No" style="text;html=1;align=center;verticalAlign=middle;resizable=0;points=[];autosize=1;" vertex="1" parent="WIyWlLk6GJQsqaUBKTNV-1">
          <mxGeometry x="765" y="770" width="30" height="20" as="geometry" />
        </mxCell>
        <mxCell id="mw9BFmcyNcV64FFNhd6j-194" style="edgeStyle=orthogonalEdgeStyle;rounded=0;orthogonalLoop=1;jettySize=auto;html=1;exitX=1;exitY=0;exitDx=0;exitDy=0;" edge="1" parent="WIyWlLk6GJQsqaUBKTNV-1" source="mw9BFmcyNcV64FFNhd6j-193">
          <mxGeometry relative="1" as="geometry">
            <mxPoint x="1040" y="720" as="targetPoint" />
            <Array as="points">
              <mxPoint x="970" y="720" />
            </Array>
          </mxGeometry>
        </mxCell>
        <mxCell id="mw9BFmcyNcV64FFNhd6j-195" style="edgeStyle=orthogonalEdgeStyle;rounded=0;orthogonalLoop=1;jettySize=auto;html=1;exitX=1;exitY=1;exitDx=0;exitDy=0;" edge="1" parent="WIyWlLk6GJQsqaUBKTNV-1" source="mw9BFmcyNcV64FFNhd6j-193">
          <mxGeometry relative="1" as="geometry">
            <mxPoint x="1040" y="880" as="targetPoint" />
            <Array as="points">
              <mxPoint x="970" y="880" />
              <mxPoint x="1040" y="880" />
            </Array>
          </mxGeometry>
        </mxCell>
        <mxCell id="mw9BFmcyNcV64FFNhd6j-193" value="判断号码归属运营商" style="rhombus;whiteSpace=wrap;html=1;fillColor=#76608a;strokeColor=#432D57;fontColor=#ffffff;" vertex="1" parent="WIyWlLk6GJQsqaUBKTNV-1">
          <mxGeometry x="880" y="740" width="120" height="120" as="geometry" />
        </mxCell>
        <mxCell id="mw9BFmcyNcV64FFNhd6j-199" value="" style="edgeStyle=orthogonalEdgeStyle;rounded=0;orthogonalLoop=1;jettySize=auto;html=1;" edge="1" parent="WIyWlLk6GJQsqaUBKTNV-1" source="mw9BFmcyNcV64FFNhd6j-196" target="mw9BFmcyNcV64FFNhd6j-198">
          <mxGeometry relative="1" as="geometry" />
        </mxCell>
        <mxCell id="mw9BFmcyNcV64FFNhd6j-196" value="联通、电信" style="shape=tape;whiteSpace=wrap;html=1;strokeWidth=2;size=0.19;fillColor=#00FF00;" vertex="1" parent="WIyWlLk6GJQsqaUBKTNV-1">
          <mxGeometry x="1040" y="688" width="100" height="65" as="geometry" />
        </mxCell>
        <mxCell id="mw9BFmcyNcV64FFNhd6j-197" value="移动" style="shape=tape;whiteSpace=wrap;html=1;strokeWidth=2;size=0.19;fillColor=#00FF00;" vertex="1" parent="WIyWlLk6GJQsqaUBKTNV-1">
          <mxGeometry x="1040" y="845" width="100" height="65" as="geometry" />
        </mxCell>
        <mxCell id="mw9BFmcyNcV64FFNhd6j-200" style="edgeStyle=orthogonalEdgeStyle;rounded=0;orthogonalLoop=1;jettySize=auto;html=1;exitX=0.5;exitY=0;exitDx=0;exitDy=0;" edge="1" parent="WIyWlLk6GJQsqaUBKTNV-1" source="mw9BFmcyNcV64FFNhd6j-198">
          <mxGeometry relative="1" as="geometry">
            <mxPoint x="1240" y="610" as="targetPoint" />
            <Array as="points">
              <mxPoint x="1220" y="620" />
              <mxPoint x="1220" y="620" />
            </Array>
          </mxGeometry>
        </mxCell>
        <mxCell id="mw9BFmcyNcV64FFNhd6j-204" value="" style="edgeStyle=orthogonalEdgeStyle;rounded=0;orthogonalLoop=1;jettySize=auto;html=1;" edge="1" parent="WIyWlLk6GJQsqaUBKTNV-1" source="mw9BFmcyNcV64FFNhd6j-198" target="mw9BFmcyNcV64FFNhd6j-203">
          <mxGeometry relative="1" as="geometry" />
        </mxCell>
        <mxCell id="mw9BFmcyNcV64FFNhd6j-198" value="判断是否有异网模板" style="rhombus;whiteSpace=wrap;html=1;strokeWidth=2;fillColor=#76608a;strokeColor=#432D57;fontColor=#ffffff;" vertex="1" parent="WIyWlLk6GJQsqaUBKTNV-1">
          <mxGeometry x="1180" y="680.5" width="80" height="80" as="geometry" />
        </mxCell>
        <mxCell id="mw9BFmcyNcV64FFNhd6j-201" value="Yes" style="text;html=1;align=center;verticalAlign=middle;resizable=0;points=[];autosize=1;" vertex="1" parent="WIyWlLk6GJQsqaUBKTNV-1">
          <mxGeometry x="1215" y="640" width="30" height="20" as="geometry" />
        </mxCell>
        <mxCell id="mw9BFmcyNcV64FFNhd6j-206" style="edgeStyle=orthogonalEdgeStyle;rounded=0;orthogonalLoop=1;jettySize=auto;html=1;exitX=1;exitY=0;exitDx=0;exitDy=0;" edge="1" parent="WIyWlLk6GJQsqaUBKTNV-1" source="mw9BFmcyNcV64FFNhd6j-203">
          <mxGeometry relative="1" as="geometry">
            <mxPoint x="1340" y="800" as="targetPoint" />
            <Array as="points">
              <mxPoint x="1240" y="800" />
            </Array>
          </mxGeometry>
        </mxCell>
        <mxCell id="mw9BFmcyNcV64FFNhd6j-212" style="edgeStyle=orthogonalEdgeStyle;rounded=0;orthogonalLoop=1;jettySize=auto;html=1;exitX=1;exitY=1;exitDx=0;exitDy=0;" edge="1" parent="WIyWlLk6GJQsqaUBKTNV-1" source="mw9BFmcyNcV64FFNhd6j-203">
          <mxGeometry relative="1" as="geometry">
            <mxPoint x="1350" y="910" as="targetPoint" />
            <Array as="points">
              <mxPoint x="1240" y="910" />
              <mxPoint x="1350" y="910" />
            </Array>
          </mxGeometry>
        </mxCell>
        <mxCell id="mw9BFmcyNcV64FFNhd6j-203" value="端口为30或是31" style="rhombus;whiteSpace=wrap;html=1;strokeWidth=2;fillColor=#76608a;strokeColor=#432D57;fontColor=#ffffff;" vertex="1" parent="WIyWlLk6GJQsqaUBKTNV-1">
          <mxGeometry x="1180" y="790" width="80" height="80" as="geometry" />
        </mxCell>
        <mxCell id="mw9BFmcyNcV64FFNhd6j-205" value="No" style="text;html=1;align=center;verticalAlign=middle;resizable=0;points=[];autosize=1;" vertex="1" parent="WIyWlLk6GJQsqaUBKTNV-1">
          <mxGeometry x="1215" y="760" width="30" height="20" as="geometry" />
        </mxCell>
        <mxCell id="mw9BFmcyNcV64FFNhd6j-207" value="10658830端口" style="text;html=1;align=center;verticalAlign=middle;resizable=0;points=[];autosize=1;fillColor=#d80073;strokeColor=#A50040;fontColor=#ffffff;" vertex="1" parent="WIyWlLk6GJQsqaUBKTNV-1">
          <mxGeometry x="1241" y="780" width="90" height="20" as="geometry" />
        </mxCell>
        <mxCell id="mw9BFmcyNcV64FFNhd6j-209" value="10658831端口" style="text;html=1;align=center;verticalAlign=middle;resizable=0;points=[];autosize=1;fillColor=#e3c800;strokeColor=#B09500;fontColor=#ffffff;" vertex="1" parent="WIyWlLk6GJQsqaUBKTNV-1">
          <mxGeometry x="1245" y="910" width="90" height="20" as="geometry" />
        </mxCell>
        <mxCell id="mw9BFmcyNcV64FFNhd6j-210" value="队列：pm-ws-10658830-Other" style="ellipse;whiteSpace=wrap;html=1;fillColor=#008a00;strokeColor=#005700;fontColor=#ffffff;" vertex="1" parent="WIyWlLk6GJQsqaUBKTNV-1">
          <mxGeometry x="1340" y="753" width="170" height="80" as="geometry" />
        </mxCell>
        <mxCell id="mw9BFmcyNcV64FFNhd6j-213" value="队列：pm-ws-10658831-Other" style="ellipse;whiteSpace=wrap;html=1;fillColor=#008a00;strokeColor=#005700;fontColor=#ffffff;" vertex="1" parent="WIyWlLk6GJQsqaUBKTNV-1">
          <mxGeometry x="1350" y="870" width="160" height="80" as="geometry" />
        </mxCell>
        <mxCell id="mw9BFmcyNcV64FFNhd6j-225" style="edgeStyle=orthogonalEdgeStyle;rounded=0;orthogonalLoop=1;jettySize=auto;html=1;exitX=0.75;exitY=0;exitDx=0;exitDy=0;entryX=0.003;entryY=0.375;entryDx=0;entryDy=0;entryPerimeter=0;fillColor=#d80073;strokeColor=#A50040;" edge="1" parent="WIyWlLk6GJQsqaUBKTNV-1" source="mw9BFmcyNcV64FFNhd6j-216" target="mw9BFmcyNcV64FFNhd6j-218">
          <mxGeometry relative="1" as="geometry" />
        </mxCell>
        <mxCell id="mw9BFmcyNcV64FFNhd6j-226" style="edgeStyle=orthogonalEdgeStyle;rounded=0;orthogonalLoop=1;jettySize=auto;html=1;exitX=0.75;exitY=1;exitDx=0;exitDy=0;fillColor=#e3c800;strokeColor=#B09500;" edge="1" parent="WIyWlLk6GJQsqaUBKTNV-1" source="mw9BFmcyNcV64FFNhd6j-216">
          <mxGeometry relative="1" as="geometry">
            <mxPoint x="1720" y="940" as="targetPoint" />
            <Array as="points">
              <mxPoint x="1640" y="940" />
            </Array>
          </mxGeometry>
        </mxCell>
        <mxCell id="mw9BFmcyNcV64FFNhd6j-216" value="mtdispose处理" style="rounded=1;whiteSpace=wrap;html=1;fillColor=#1ba1e2;strokeColor=#006EAF;fontColor=#ffffff;" vertex="1" parent="WIyWlLk6GJQsqaUBKTNV-1">
          <mxGeometry x="1550" y="830" width="120" height="60" as="geometry" />
        </mxCell>
        <mxCell id="mw9BFmcyNcV64FFNhd6j-221" value="" style="edgeStyle=orthogonalEdgeStyle;rounded=0;orthogonalLoop=1;jettySize=auto;html=1;" edge="1" parent="WIyWlLk6GJQsqaUBKTNV-1" source="mw9BFmcyNcV64FFNhd6j-218" target="mw9BFmcyNcV64FFNhd6j-220">
          <mxGeometry relative="1" as="geometry" />
        </mxCell>
        <mxCell id="mw9BFmcyNcV64FFNhd6j-218" value="队列：pm-Send-10658830-Other" style="ellipse;whiteSpace=wrap;html=1;rounded=1;fontColor=#ffffff;strokeColor=#005700;fillColor=#008a00;" vertex="1" parent="WIyWlLk6GJQsqaUBKTNV-1">
          <mxGeometry x="1710" y="753" width="200" height="80" as="geometry" />
        </mxCell>
        <mxCell id="mw9BFmcyNcV64FFNhd6j-223" value="" style="edgeStyle=orthogonalEdgeStyle;rounded=0;orthogonalLoop=1;jettySize=auto;html=1;" edge="1" parent="WIyWlLk6GJQsqaUBKTNV-1" source="mw9BFmcyNcV64FFNhd6j-220" target="mw9BFmcyNcV64FFNhd6j-222">
          <mxGeometry relative="1" as="geometry" />
        </mxCell>
        <mxCell id="mw9BFmcyNcV64FFNhd6j-220" value="HWCMOtherSend发送" style="whiteSpace=wrap;html=1;rounded=1;fontColor=#ffffff;strokeColor=#006EAF;fillColor=#1ba1e2;" vertex="1" parent="WIyWlLk6GJQsqaUBKTNV-1">
          <mxGeometry x="1948" y="763" width="120" height="60" as="geometry" />
        </mxCell>
        <mxCell id="mw9BFmcyNcV64FFNhd6j-222" value="000000" style="triangle;whiteSpace=wrap;html=1;rounded=1;fontColor=#ffffff;strokeColor=#6F0000;fillColor=#a20025;direction=north;rotation=0;" vertex="1" parent="WIyWlLk6GJQsqaUBKTNV-1">
          <mxGeometry x="2170" y="763" width="80" height="60" as="geometry" />
        </mxCell>
        <mxCell id="mw9BFmcyNcV64FFNhd6j-224" value="" style="strokeWidth=2;html=1;shape=mxgraph.flowchart.annotation_2;align=left;labelPosition=right;pointerEvents=1;fillColor=#00FF00;rotation=0;direction=west;" vertex="1" parent="WIyWlLk6GJQsqaUBKTNV-1">
          <mxGeometry x="1500" y="780" width="50" height="150" as="geometry" />
        </mxCell>
        <mxCell id="mw9BFmcyNcV64FFNhd6j-228" style="edgeStyle=orthogonalEdgeStyle;rounded=0;orthogonalLoop=1;jettySize=auto;html=1;exitX=1;exitY=0.5;exitDx=0;exitDy=0;" edge="1" parent="WIyWlLk6GJQsqaUBKTNV-1" source="mw9BFmcyNcV64FFNhd6j-227">
          <mxGeometry relative="1" as="geometry">
            <mxPoint x="1950" y="940" as="targetPoint" />
          </mxGeometry>
        </mxCell>
        <mxCell id="mw9BFmcyNcV64FFNhd6j-227" value="队列：pm-Send-10658831-Other" style="ellipse;whiteSpace=wrap;html=1;fillColor=#008a00;strokeColor=#005700;fontColor=#ffffff;" vertex="1" parent="WIyWlLk6GJQsqaUBKTNV-1">
          <mxGeometry x="1720" y="900" width="170" height="80" as="geometry" />
        </mxCell>
        <mxCell id="mw9BFmcyNcV64FFNhd6j-231" value="" style="edgeStyle=orthogonalEdgeStyle;rounded=0;orthogonalLoop=1;jettySize=auto;html=1;" edge="1" parent="WIyWlLk6GJQsqaUBKTNV-1" source="mw9BFmcyNcV64FFNhd6j-229" target="mw9BFmcyNcV64FFNhd6j-230">
          <mxGeometry relative="1" as="geometry" />
        </mxCell>
        <mxCell id="mw9BFmcyNcV64FFNhd6j-229" value="CMppGWSend发送" style="rounded=1;whiteSpace=wrap;html=1;fillColor=#1ba1e2;strokeColor=#006EAF;fontColor=#ffffff;" vertex="1" parent="WIyWlLk6GJQsqaUBKTNV-1">
          <mxGeometry x="1948" y="910" width="120" height="60" as="geometry" />
        </mxCell>
        <mxCell id="mw9BFmcyNcV64FFNhd6j-230" value="000000" style="triangle;whiteSpace=wrap;html=1;rounded=1;fontColor=#ffffff;strokeColor=#6F0000;fillColor=#a20025;direction=north;" vertex="1" parent="WIyWlLk6GJQsqaUBKTNV-1">
          <mxGeometry x="2168" y="910" width="80" height="60" as="geometry" />
        </mxCell>
        <mxCell id="mw9BFmcyNcV64FFNhd6j-234" style="edgeStyle=orthogonalEdgeStyle;rounded=0;orthogonalLoop=1;jettySize=auto;html=1;exitX=1;exitY=0.5;exitDx=0;exitDy=0;entryX=0;entryY=0.5;entryDx=0;entryDy=0;" edge="1" parent="WIyWlLk6GJQsqaUBKTNV-1" source="mw9BFmcyNcV64FFNhd6j-232" target="mw9BFmcyNcV64FFNhd6j-233">
          <mxGeometry relative="1" as="geometry" />
        </mxCell>
        <mxCell id="mw9BFmcyNcV64FFNhd6j-232" value="队列：Umap-Pm-Ws2Send-OSP" style="ellipse;whiteSpace=wrap;html=1;fillColor=#008a00;strokeColor=#005700;fontColor=#ffffff;" vertex="1" parent="WIyWlLk6GJQsqaUBKTNV-1">
          <mxGeometry x="1241" y="560" width="229" height="80" as="geometry" />
        </mxCell>
        <mxCell id="mw9BFmcyNcV64FFNhd6j-236" value="" style="edgeStyle=orthogonalEdgeStyle;rounded=0;orthogonalLoop=1;jettySize=auto;html=1;" edge="1" parent="WIyWlLk6GJQsqaUBKTNV-1" source="mw9BFmcyNcV64FFNhd6j-233" target="mw9BFmcyNcV64FFNhd6j-235">
          <mxGeometry relative="1" as="geometry" />
        </mxCell>
        <mxCell id="mw9BFmcyNcV64FFNhd6j-233" value="MtdiSpose处理" style="rounded=1;whiteSpace=wrap;html=1;fillColor=#1ba1e2;strokeColor=#006EAF;fontColor=#ffffff;" vertex="1" parent="WIyWlLk6GJQsqaUBKTNV-1">
          <mxGeometry x="1510" y="570" width="120" height="60" as="geometry" />
        </mxCell>
        <mxCell id="mw9BFmcyNcV64FFNhd6j-238" value="" style="edgeStyle=orthogonalEdgeStyle;rounded=0;orthogonalLoop=1;jettySize=auto;html=1;" edge="1" parent="WIyWlLk6GJQsqaUBKTNV-1" source="mw9BFmcyNcV64FFNhd6j-235" target="mw9BFmcyNcV64FFNhd6j-237">
          <mxGeometry relative="1" as="geometry" />
        </mxCell>
        <mxCell id="mw9BFmcyNcV64FFNhd6j-235" value="队列：Umap-pm-OSPSend" style="ellipse;whiteSpace=wrap;html=1;rounded=1;fontColor=#ffffff;strokeColor=#005700;fillColor=#008a00;" vertex="1" parent="WIyWlLk6GJQsqaUBKTNV-1">
          <mxGeometry x="1710" y="560" width="170" height="80" as="geometry" />
        </mxCell>
        <mxCell id="mw9BFmcyNcV64FFNhd6j-241" value="" style="edgeStyle=orthogonalEdgeStyle;rounded=0;orthogonalLoop=1;jettySize=auto;html=1;" edge="1" parent="WIyWlLk6GJQsqaUBKTNV-1" source="mw9BFmcyNcV64FFNhd6j-237" target="mw9BFmcyNcV64FFNhd6j-240">
          <mxGeometry relative="1" as="geometry" />
        </mxCell>
        <mxCell id="mw9BFmcyNcV64FFNhd6j-237" value="OspSend发送" style="whiteSpace=wrap;html=1;rounded=1;fontColor=#ffffff;strokeColor=#006EAF;fillColor=#1ba1e2;" vertex="1" parent="WIyWlLk6GJQsqaUBKTNV-1">
          <mxGeometry x="1940" y="570" width="120" height="60" as="geometry" />
        </mxCell>
        <mxCell id="mw9BFmcyNcV64FFNhd6j-240" value="000000" style="triangle;whiteSpace=wrap;html=1;rounded=1;fontColor=#ffffff;strokeColor=#6F0000;fillColor=#a20025;direction=north;" vertex="1" parent="WIyWlLk6GJQsqaUBKTNV-1">
          <mxGeometry x="2160" y="570" width="80" height="60" as="geometry" />
        </mxCell>
      </root>
    </mxGraphModel>
  </diagram>
</mxfile>
